<?xml version="1.0" encoding="UTF-8" standalone="no"?>
<!DOCTYPE svg PUBLIC "-//W3C//DTD SVG 1.1//EN"
 "http://www.w3.org/Graphics/SVG/1.1/DTD/svg11.dtd">
<!-- Generated by graphviz version 2.40.1 (20161225.0304)
 -->
<!-- Title: %3 Pages: 1 -->
<svg width="2982pt" height="664pt"
 viewBox="0.00 0.00 2981.79 664.44" xmlns="http://www.w3.org/2000/svg" xmlns:xlink="http://www.w3.org/1999/xlink">
<g id="graph0" class="graph" transform="scale(1 1) rotate(0) translate(4 660.4407)">
<title>%3</title>
<polygon fill="#ffffff" stroke="transparent" points="-4,4 -4,-660.4407 2977.7889,-660.4407 2977.7889,4 -4,4"/>
<!-- map_treatment_first_fraction -->
<g id="node1" class="node">
<title>map_treatment_first_fraction</title>
<ellipse fill="#b2dfee" stroke="#b2dfee" cx="2329.0036" cy="-388.0904" rx="149.8133" ry="26.7407"/>
<text text-anchor="middle" x="2329.0036" y="-391.8904" font-family="Times,serif" font-size="14.00" fill="#000000">First Radiotherapy fraction</text>
<text text-anchor="middle" x="2329.0036" y="-376.8904" font-family="Times,serif" font-size="14.00" fill="#000000">[roo:C100058]</text>
</g>
<!-- map_treatment_first_fraction_xsd_dateTime -->
<g id="node2" class="node">
<title>map_treatment_first_fraction_xsd_dateTime</title>
<ellipse fill="#b2dfee" stroke="#b2dfee" cx="2650.0036" cy="-268.3503" rx="87.8629" ry="26.7407"/>
<text text-anchor="middle" x="2650.0036" y="-272.1503" font-family="Times,serif" font-size="14.00" fill="#000000">LITERAL</text>
<text text-anchor="middle" x="2650.0036" y="-257.1503" font-family="Times,serif" font-size="14.00" fill="#000000">[xsd:dateTime]</text>
</g>
<!-- map_treatment_first_fraction&#45;&gt;map_treatment_first_fraction_xsd_dateTime -->
<g id="edge1" class="edge">
<title>map_treatment_first_fraction&#45;&gt;map_treatment_first_fraction_xsd_dateTime</title>
<path fill="none" stroke="#000000" d="M2428.4358,-367.8969C2455.0129,-361.2628 2483.4435,-353.0231 2509.0036,-343.2203 2541.2048,-330.8706 2575.4151,-312.8375 2602.0734,-297.5638"/>
<polygon fill="#000000" stroke="#000000" points="2603.9123,-300.5434 2610.8107,-292.5021 2600.4033,-294.4865 2603.9123,-300.5434"/>
<text text-anchor="middle" x="2623.5036" y="-332.0203" font-family="Times,serif" font-size="14.00" fill="#000000">at_date_time</text>
<text text-anchor="middle" x="2623.5036" y="-317.0203" font-family="Times,serif" font-size="14.00" fill="#000000">[roo:P100041]</text>
</g>
<!-- map_disease -->
<g id="node3" class="node">
<title>map_disease</title>
<ellipse fill="#b2dfee" stroke="#b2dfee" cx="832.0036" cy="-388.0904" rx="75.8212" ry="26.7407"/>
<text text-anchor="middle" x="832.0036" y="-391.8904" font-family="Times,serif" font-size="14.00" fill="#000000">Neoplasm</text>
<text text-anchor="middle" x="832.0036" y="-376.8904" font-family="Times,serif" font-size="14.00" fill="#000000">[ncit:C3262]</text>
</g>
<!-- map_histology -->
<g id="node4" class="node">
<title>map_histology</title>
<ellipse fill="#b2dfee" stroke="#b2dfee" cx="727.0036" cy="-268.3503" rx="141.3428" ry="26.7407"/>
<text text-anchor="middle" x="727.0036" y="-272.1503" font-family="Times,serif" font-size="14.00" fill="#000000">Neoplasm by Morphology</text>
<text text-anchor="middle" x="727.0036" y="-257.1503" font-family="Times,serif" font-size="14.00" fill="#000000">[ncit:C4741]</text>
</g>
<!-- map_disease&#45;&gt;map_histology -->
<g id="edge2" class="edge">
<title>map_disease&#45;&gt;map_histology</title>
<path fill="none" stroke="#000000" d="M809.4784,-362.4031C794.2255,-345.0089 773.896,-321.8255 757.2375,-302.8285"/>
<polygon fill="#000000" stroke="#000000" points="759.8087,-300.4521 750.584,-295.241 754.5456,-305.0673 759.8087,-300.4521"/>
<text text-anchor="middle" x="843.5036" y="-332.0203" font-family="Times,serif" font-size="14.00" fill="#000000">has_histology</text>
<text text-anchor="middle" x="843.5036" y="-317.0203" font-family="Times,serif" font-size="14.00" fill="#000000">[roo:P100021]</text>
</g>
<!-- map_clinTNM -->
<g id="node5" class="node">
<title>map_clinTNM</title>
<ellipse fill="#b2dfee" stroke="#b2dfee" cx="1008.0036" cy="-268.3503" rx="121.7449" ry="26.7407"/>
<text text-anchor="middle" x="1008.0036" y="-272.1503" font-family="Times,serif" font-size="14.00" fill="#000000">Clinical TNM Finding</text>
<text text-anchor="middle" x="1008.0036" y="-257.1503" font-family="Times,serif" font-size="14.00" fill="#000000">[ncit:C48881]</text>
</g>
<!-- map_disease&#45;&gt;map_clinTNM -->
<g id="edge3" class="edge">
<title>map_disease&#45;&gt;map_clinTNM</title>
<path fill="none" stroke="#000000" d="M867.8703,-364.1831C877.9571,-357.4291 888.9238,-350.057 899.0036,-343.2203 919.8573,-329.0762 942.8656,-313.2978 962.3476,-299.8865"/>
<polygon fill="#000000" stroke="#000000" points="964.4967,-302.6563 970.7466,-294.1011 960.5258,-296.8915 964.4967,-302.6563"/>
<text text-anchor="middle" x="1007.5036" y="-332.0203" font-family="Times,serif" font-size="14.00" fill="#000000">has_clinical_stage</text>
<text text-anchor="middle" x="1007.5036" y="-317.0203" font-family="Times,serif" font-size="14.00" fill="#000000">[roo:P100243]</text>
</g>
<!-- map_disease_xsd_dateTime -->
<g id="node6" class="node">
<title>map_disease_xsd_dateTime</title>
<ellipse fill="#b2dfee" stroke="#b2dfee" cx="480.0036" cy="-268.3503" rx="87.8629" ry="26.7407"/>
<text text-anchor="middle" x="480.0036" y="-272.1503" font-family="Times,serif" font-size="14.00" fill="#000000">LITERAL</text>
<text text-anchor="middle" x="480.0036" y="-257.1503" font-family="Times,serif" font-size="14.00" fill="#000000">[xsd:dateTime]</text>
</g>
<!-- map_disease&#45;&gt;map_disease_xsd_dateTime -->
<g id="edge4" class="edge">
<title>map_disease&#45;&gt;map_disease_xsd_dateTime</title>
<path fill="none" stroke="#000000" d="M768.0558,-373.4949C735.6685,-365.5533 695.9134,-354.9604 661.0036,-343.2203 619.3147,-329.2006 573.5488,-310.2359 538.4672,-294.9017"/>
<polygon fill="#000000" stroke="#000000" points="539.4308,-291.502 528.8679,-290.6801 536.6127,-297.9097 539.4308,-291.502"/>
<text text-anchor="middle" x="712.5036" y="-332.0203" font-family="Times,serif" font-size="14.00" fill="#000000">at_date_time</text>
<text text-anchor="middle" x="712.5036" y="-317.0203" font-family="Times,serif" font-size="14.00" fill="#000000">[roo:P100041]</text>
</g>
<!-- map_histology_xsd_string -->
<g id="node33" class="node">
<title>map_histology_xsd_string</title>
<ellipse fill="#b2dfee" stroke="#b2dfee" cx="70.0036" cy="-147.6102" rx="70.0071" ry="26.7407"/>
<text text-anchor="middle" x="70.0036" y="-151.4102" font-family="Times,serif" font-size="14.00" fill="#000000">LITERAL</text>
<text text-anchor="middle" x="70.0036" y="-136.4102" font-family="Times,serif" font-size="14.00" fill="#000000">[xsd:string]</text>
</g>
<!-- map_histology&#45;&gt;map_histology_xsd_string -->
<g id="edge24" class="edge">
<title>map_histology&#45;&gt;map_histology_xsd_string</title>
<path fill="none" stroke="#000000" d="M624.581,-249.6935C608.6631,-246.8834 592.3975,-244.0636 577.0036,-241.4802 387.12,-209.6145 335.9519,-220.5403 149.0036,-174.4802 142.9111,-172.9792 136.6188,-171.2169 130.3688,-169.3247"/>
<polygon fill="#000000" stroke="#000000" points="131.2059,-165.9192 120.6167,-166.2633 129.1093,-172.5979 131.2059,-165.9192"/>
<text text-anchor="middle" x="504.0036" y="-196.2802" font-family="Times,serif" font-size="14.00" fill="#000000">[roo:local_value]</text>
</g>
<!-- map_clinTNM_ajcc -->
<g id="node7" class="node">
<title>map_clinTNM_ajcc</title>
<ellipse fill="#b2dfee" stroke="#b2dfee" cx="1008.0036" cy="-147.6102" rx="84.7059" ry="26.7407"/>
<text text-anchor="middle" x="1008.0036" y="-151.4102" font-family="Times,serif" font-size="14.00" fill="#000000">AJCC Edition</text>
<text text-anchor="middle" x="1008.0036" y="-136.4102" font-family="Times,serif" font-size="14.00" fill="#000000">[roo:C100051]</text>
</g>
<!-- map_clinTNM&#45;&gt;map_clinTNM_ajcc -->
<g id="edge33" class="edge">
<title>map_clinTNM&#45;&gt;map_clinTNM_ajcc</title>
<path fill="none" stroke="#000000" d="M1008.0036,-241.2538C1008.0036,-224.5536 1008.0036,-202.9131 1008.0036,-184.643"/>
<polygon fill="#000000" stroke="#000000" points="1011.5037,-184.6161 1008.0036,-174.6162 1004.5037,-184.6162 1011.5037,-184.6161"/>
<text text-anchor="middle" x="1074.0036" y="-211.7802" font-family="Times,serif" font-size="14.00" fill="#000000">has_AJCC_version</text>
<text text-anchor="middle" x="1074.0036" y="-196.7802" font-family="Times,serif" font-size="14.00" fill="#000000">[roo:P100219]</text>
</g>
<!-- map_clinT -->
<g id="node19" class="node">
<title>map_clinT</title>
<ellipse fill="#b2dfee" stroke="#b2dfee" cx="1314.0036" cy="-147.6102" rx="202.8793" ry="26.7407"/>
<text text-anchor="middle" x="1314.0036" y="-151.4102" font-family="Times,serif" font-size="14.00" fill="#000000">Generic Primary Tumor TNM Finding</text>
<text text-anchor="middle" x="1314.0036" y="-136.4102" font-family="Times,serif" font-size="14.00" fill="#000000">[ncit:C48885]</text>
</g>
<!-- map_clinTNM&#45;&gt;map_clinT -->
<g id="edge35" class="edge">
<title>map_clinTNM&#45;&gt;map_clinT</title>
<path fill="none" stroke="#000000" d="M1079.0712,-246.4048C1100.1304,-239.499 1123.1349,-231.5558 1144.0036,-223.4802 1179.6673,-209.6794 1218.6794,-192.4285 1250.3263,-177.8648"/>
<polygon fill="#000000" stroke="#000000" points="1251.8643,-181.0098 1259.4725,-173.6364 1248.9268,-174.6559 1251.8643,-181.0098"/>
<text text-anchor="middle" x="1266.5036" y="-211.7802" font-family="Times,serif" font-size="14.00" fill="#000000">has_stage</text>
<text text-anchor="middle" x="1266.5036" y="-196.7802" font-family="Times,serif" font-size="14.00" fill="#000000">[roo:P100025]</text>
</g>
<!-- map_clinN -->
<g id="node21" class="node">
<title>map_clinN</title>
<ellipse fill="#b2dfee" stroke="#b2dfee" cx="401.0036" cy="-147.6102" rx="243.4897" ry="26.7407"/>
<text text-anchor="middle" x="401.0036" y="-151.4102" font-family="Times,serif" font-size="14.00" fill="#000000">Generic Regional Lymph Nodes TNM Finding</text>
<text text-anchor="middle" x="401.0036" y="-136.4102" font-family="Times,serif" font-size="14.00" fill="#000000">[ncit:C48884]</text>
</g>
<!-- map_clinTNM&#45;&gt;map_clinN -->
<g id="edge34" class="edge">
<title>map_clinTNM&#45;&gt;map_clinN</title>
<path fill="none" stroke="#000000" d="M920.7912,-249.5429C906.2037,-246.6613 891.2,-243.8588 877.0036,-241.4802 816.001,-231.2594 799.909,-234.2649 739.0036,-223.4802 661.8343,-209.8157 575.6491,-190.4039 509.6218,-174.6364"/>
<polygon fill="#000000" stroke="#000000" points="510.157,-171.1657 499.6166,-172.2383 508.5253,-177.9728 510.157,-171.1657"/>
<text text-anchor="middle" x="790.5036" y="-211.7802" font-family="Times,serif" font-size="14.00" fill="#000000">has_stage</text>
<text text-anchor="middle" x="790.5036" y="-196.7802" font-family="Times,serif" font-size="14.00" fill="#000000">[roo:P100025]</text>
</g>
<!-- map_clinTNM_procedure -->
<g id="node31" class="node">
<title>map_clinTNM_procedure</title>
<ellipse fill="#b2dfee" stroke="#b2dfee" cx="784.0036" cy="-147.6102" rx="121.7449" ry="26.7407"/>
<text text-anchor="middle" x="784.0036" y="-151.4102" font-family="Times,serif" font-size="14.00" fill="#000000">Diagnostic Procedure</text>
<text text-anchor="middle" x="784.0036" y="-136.4102" font-family="Times,serif" font-size="14.00" fill="#000000">[ncit:C18020]</text>
</g>
<!-- map_clinTNM&#45;&gt;map_clinTNM_procedure -->
<g id="edge36" class="edge">
<title>map_clinTNM&#45;&gt;map_clinTNM_procedure</title>
<path fill="none" stroke="#000000" d="M944.4509,-245.2932C928.6555,-238.8503 911.9688,-231.4187 897.0036,-223.4802 872.7857,-210.6336 847.3106,-193.8488 826.6915,-179.3337"/>
<polygon fill="#000000" stroke="#000000" points="828.639,-176.4239 818.4615,-173.4796 824.5816,-182.128 828.639,-176.4239"/>
<text text-anchor="middle" x="950.5036" y="-211.7802" font-family="Times,serif" font-size="14.00" fill="#000000">is_staged_with</text>
<text text-anchor="middle" x="950.5036" y="-196.7802" font-family="Times,serif" font-size="14.00" fill="#000000">[roo:P100030]</text>
</g>
<!-- map_clinTNM_ajcc_xsd_string -->
<g id="node8" class="node">
<title>map_clinTNM_ajcc_xsd_string</title>
<ellipse fill="#b2dfee" stroke="#b2dfee" cx="1008.0036" cy="-26.8701" rx="70.0071" ry="26.7407"/>
<text text-anchor="middle" x="1008.0036" y="-30.6701" font-family="Times,serif" font-size="14.00" fill="#000000">LITERAL</text>
<text text-anchor="middle" x="1008.0036" y="-15.6701" font-family="Times,serif" font-size="14.00" fill="#000000">[xsd:string]</text>
</g>
<!-- map_clinTNM_ajcc&#45;&gt;map_clinTNM_ajcc_xsd_string -->
<g id="edge5" class="edge">
<title>map_clinTNM_ajcc&#45;&gt;map_clinTNM_ajcc_xsd_string</title>
<path fill="none" stroke="#000000" d="M1008.0036,-120.5137C1008.0036,-103.8135 1008.0036,-82.173 1008.0036,-63.9029"/>
<polygon fill="#000000" stroke="#000000" points="1011.5037,-63.876 1008.0036,-53.8761 1004.5037,-63.8761 1011.5037,-63.876"/>
<text text-anchor="middle" x="1067.0036" y="-75.5401" font-family="Times,serif" font-size="14.00" fill="#000000">[roo:local_value]</text>
</g>
<!-- map_treatment_last_fraction -->
<g id="node9" class="node">
<title>map_treatment_last_fraction</title>
<ellipse fill="#b2dfee" stroke="#b2dfee" cx="2826.0036" cy="-388.0904" rx="147.5709" ry="26.7407"/>
<text text-anchor="middle" x="2826.0036" y="-391.8904" font-family="Times,serif" font-size="14.00" fill="#000000">Last Radiotherapy fraction</text>
<text text-anchor="middle" x="2826.0036" y="-376.8904" font-family="Times,serif" font-size="14.00" fill="#000000">[roo:C100059]</text>
</g>
<!-- map_treatment_last_fraction_xsd_dateTime -->
<g id="node10" class="node">
<title>map_treatment_last_fraction_xsd_dateTime</title>
<ellipse fill="#b2dfee" stroke="#b2dfee" cx="2843.0036" cy="-268.3503" rx="87.8629" ry="26.7407"/>
<text text-anchor="middle" x="2843.0036" y="-272.1503" font-family="Times,serif" font-size="14.00" fill="#000000">LITERAL</text>
<text text-anchor="middle" x="2843.0036" y="-257.1503" font-family="Times,serif" font-size="14.00" fill="#000000">[xsd:dateTime]</text>
</g>
<!-- map_treatment_last_fraction&#45;&gt;map_treatment_last_fraction_xsd_dateTime -->
<g id="edge6" class="edge">
<title>map_treatment_last_fraction&#45;&gt;map_treatment_last_fraction_xsd_dateTime</title>
<path fill="none" stroke="#000000" d="M2829.8187,-361.2184C2832.1536,-344.7723 2835.1744,-323.4951 2837.7354,-305.457"/>
<polygon fill="#000000" stroke="#000000" points="2841.2019,-305.9396 2839.1424,-295.5469 2834.2714,-304.9556 2841.2019,-305.9396"/>
<text text-anchor="middle" x="2887.5036" y="-332.0203" font-family="Times,serif" font-size="14.00" fill="#000000">at_date_time</text>
<text text-anchor="middle" x="2887.5036" y="-317.0203" font-family="Times,serif" font-size="14.00" fill="#000000">[roo:P100041]</text>
</g>
<!-- map_treatment_delivered_dose_gray -->
<g id="node11" class="node">
<title>map_treatment_delivered_dose_gray</title>
<ellipse fill="#b2dfee" stroke="#b2dfee" cx="1242.0036" cy="-268.3503" rx="84.2917" ry="26.7407"/>
<text text-anchor="middle" x="1242.0036" y="-272.1503" font-family="Times,serif" font-size="14.00" fill="#000000">gray</text>
<text text-anchor="middle" x="1242.0036" y="-257.1503" font-family="Times,serif" font-size="14.00" fill="#000000">[UO:0000134]</text>
</g>
<!-- map_treatment_delivered_dose_gray_xsd_double -->
<g id="node12" class="node">
<title>map_treatment_delivered_dose_gray_xsd_double</title>
<ellipse fill="#b2dfee" stroke="#b2dfee" cx="1608.0036" cy="-147.6102" rx="73.5782" ry="26.7407"/>
<text text-anchor="middle" x="1608.0036" y="-151.4102" font-family="Times,serif" font-size="14.00" fill="#000000">LITERAL</text>
<text text-anchor="middle" x="1608.0036" y="-136.4102" font-family="Times,serif" font-size="14.00" fill="#000000">[xsd:double]</text>
</g>
<!-- map_treatment_delivered_dose_gray&#45;&gt;map_treatment_delivered_dose_gray_xsd_double -->
<g id="edge7" class="edge">
<title>map_treatment_delivered_dose_gray&#45;&gt;map_treatment_delivered_dose_gray_xsd_double</title>
<path fill="none" stroke="#000000" d="M1300.8078,-248.9513C1367.1577,-227.0631 1474.7494,-191.5695 1543.3967,-168.9234"/>
<polygon fill="#000000" stroke="#000000" points="1544.8328,-172.1353 1553.2329,-165.6785 1542.6397,-165.4876 1544.8328,-172.1353"/>
<text text-anchor="middle" x="1520.5036" y="-211.7802" font-family="Times,serif" font-size="14.00" fill="#000000">has_value</text>
<text text-anchor="middle" x="1520.5036" y="-196.7802" font-family="Times,serif" font-size="14.00" fill="#000000">[roo:P100042]</text>
</g>
<!-- map_treatment -->
<g id="node13" class="node">
<title>map_treatment</title>
<ellipse fill="#b2dfee" stroke="#b2dfee" cx="1608.0036" cy="-508.8305" rx="200.6368" ry="26.7407"/>
<text text-anchor="middle" x="1608.0036" y="-512.6305" font-family="Times,serif" font-size="14.00" fill="#000000">Therapeutic or Preventive Procedure</text>
<text text-anchor="middle" x="1608.0036" y="-497.6305" font-family="Times,serif" font-size="14.00" fill="#000000">[sty:T061]</text>
</g>
<!-- map_treatment&#45;&gt;map_treatment_first_fraction -->
<g id="edge12" class="edge">
<title>map_treatment&#45;&gt;map_treatment_first_fraction</title>
<path fill="none" stroke="#000000" d="M1748.2107,-489.5564C1771.4918,-486.7395 1795.4061,-484.0794 1818.0036,-481.9605 1951.435,-469.4488 1987.7444,-491.0072 2119.0036,-463.9605 2169.0208,-453.6541 2223.1714,-433.8635 2263.9559,-417.0792"/>
<polygon fill="#000000" stroke="#000000" points="2265.3474,-420.2912 2273.235,-413.2176 2262.6578,-413.8285 2265.3474,-420.2912"/>
<text text-anchor="middle" x="2299.5036" y="-452.2605" font-family="Times,serif" font-size="14.00" fill="#000000">has_fractionation_part</text>
<text text-anchor="middle" x="2299.5036" y="-437.2605" font-family="Times,serif" font-size="14.00" fill="#000000">[roo:P100269]</text>
</g>
<!-- map_treatment&#45;&gt;map_disease -->
<g id="edge9" class="edge">
<title>map_treatment&#45;&gt;map_disease</title>
<path fill="none" stroke="#000000" d="M1504.3945,-485.6691C1483.9763,-479.668 1463.0034,-472.451 1444.0036,-463.9605 1420.8177,-453.5993 1420.1862,-440.7155 1396.0036,-432.9605 1315.2911,-407.0771 1099.3703,-423.1271 1015.0036,-414.9605 980.683,-411.6382 942.9574,-406.3756 910.7214,-401.3848"/>
<polygon fill="#000000" stroke="#000000" points="910.8807,-397.8671 900.4594,-399.7768 909.797,-404.7827 910.8807,-397.8671"/>
<text text-anchor="middle" x="1495.5036" y="-452.2605" font-family="Times,serif" font-size="14.00" fill="#000000">treats</text>
<text text-anchor="middle" x="1495.5036" y="-437.2605" font-family="Times,serif" font-size="14.00" fill="#000000">[roo:P100402]</text>
</g>
<!-- map_treatment&#45;&gt;map_treatment_last_fraction -->
<g id="edge11" class="edge">
<title>map_treatment&#45;&gt;map_treatment_last_fraction</title>
<path fill="none" stroke="#000000" d="M1745.9027,-489.2777C1769.8988,-486.4216 1794.6459,-483.8213 1818.0036,-481.9605 2069.3342,-461.9379 2134.1629,-489.3956 2385.0036,-463.9605 2500.2896,-452.2705 2630.944,-428.4464 2719.9205,-410.5966"/>
<polygon fill="#000000" stroke="#000000" points="2720.6372,-414.0226 2729.7483,-408.6153 2719.2538,-407.1607 2720.6372,-414.0226"/>
<text text-anchor="middle" x="2672.5036" y="-452.2605" font-family="Times,serif" font-size="14.00" fill="#000000">has_fractionation_part</text>
<text text-anchor="middle" x="2672.5036" y="-437.2605" font-family="Times,serif" font-size="14.00" fill="#000000">[roo:P100269]</text>
</g>
<!-- map_treatment_delivered_dose -->
<g id="node14" class="node">
<title>map_treatment_delivered_dose</title>
<ellipse fill="#b2dfee" stroke="#b2dfee" cx="1493.0036" cy="-388.0904" rx="140.0143" ry="26.7407"/>
<text text-anchor="middle" x="1493.0036" y="-391.8904" font-family="Times,serif" font-size="14.00" fill="#000000">Delivered Radiation Dose</text>
<text text-anchor="middle" x="1493.0036" y="-376.8904" font-family="Times,serif" font-size="14.00" fill="#000000">[roo:C100012]</text>
</g>
<!-- map_treatment&#45;&gt;map_treatment_delivered_dose -->
<g id="edge8" class="edge">
<title>map_treatment&#45;&gt;map_treatment_delivered_dose</title>
<path fill="none" stroke="#000000" d="M1590.36,-481.8006C1579.8367,-466.6483 1565.6937,-447.8596 1551.0036,-432.9605 1546.8808,-428.779 1542.3607,-424.6477 1537.7205,-420.6842"/>
<polygon fill="#000000" stroke="#000000" points="1539.7891,-417.8536 1529.8467,-414.1932 1535.3364,-423.2549 1539.7891,-417.8536"/>
<text text-anchor="middle" x="1628.5036" y="-452.2605" font-family="Times,serif" font-size="14.00" fill="#000000">has_rt_dose</text>
<text text-anchor="middle" x="1628.5036" y="-437.2605" font-family="Times,serif" font-size="14.00" fill="#000000">[roo:P100298]</text>
</g>
<!-- map_treatment_prescribed_dose -->
<g id="node15" class="node">
<title>map_treatment_prescribed_dose</title>
<ellipse fill="#b2dfee" stroke="#b2dfee" cx="1797.0036" cy="-388.0904" rx="146.2423" ry="26.7407"/>
<text text-anchor="middle" x="1797.0036" y="-391.8904" font-family="Times,serif" font-size="14.00" fill="#000000">Prescribed Radiation Dose</text>
<text text-anchor="middle" x="1797.0036" y="-376.8904" font-family="Times,serif" font-size="14.00" fill="#000000">[roo:C100013]</text>
</g>
<!-- map_treatment&#45;&gt;map_treatment_prescribed_dose -->
<g id="edge10" class="edge">
<title>map_treatment&#45;&gt;map_treatment_prescribed_dose</title>
<path fill="none" stroke="#000000" d="M1653.6758,-482.4457C1663.7324,-476.4753 1674.2812,-470.0872 1684.0036,-463.9605 1706.3065,-449.9059 1730.6309,-433.6923 1750.9792,-419.8705"/>
<polygon fill="#000000" stroke="#000000" points="1753.1455,-422.6297 1759.439,-414.1066 1749.2041,-416.8448 1753.1455,-422.6297"/>
<text text-anchor="middle" x="1842.5036" y="-452.2605" font-family="Times,serif" font-size="14.00" fill="#000000">has_prescribed_radiation_dose</text>
<text text-anchor="middle" x="1842.5036" y="-437.2605" font-family="Times,serif" font-size="14.00" fill="#000000">[roo:P100023]</text>
</g>
<!-- map_treatment_xsd_string -->
<g id="node16" class="node">
<title>map_treatment_xsd_string</title>
<ellipse fill="#b2dfee" stroke="#b2dfee" cx="2031.0036" cy="-388.0904" rx="70.0071" ry="26.7407"/>
<text text-anchor="middle" x="2031.0036" y="-391.8904" font-family="Times,serif" font-size="14.00" fill="#000000">LITERAL</text>
<text text-anchor="middle" x="2031.0036" y="-376.8904" font-family="Times,serif" font-size="14.00" fill="#000000">[xsd:string]</text>
</g>
<!-- map_treatment&#45;&gt;map_treatment_xsd_string -->
<g id="edge13" class="edge">
<title>map_treatment&#45;&gt;map_treatment_xsd_string</title>
<path fill="none" stroke="#000000" d="M1753.3046,-490.2366C1849.4214,-477.9313 1957.8513,-464.0371 1958.0036,-463.9605 1977.1929,-454.3072 1994.1474,-437.5289 2006.8753,-422.2013"/>
<polygon fill="#000000" stroke="#000000" points="2009.6293,-424.3615 2013.1353,-414.3635 2004.1597,-419.9929 2009.6293,-424.3615"/>
<text text-anchor="middle" x="2056.0036" y="-436.7605" font-family="Times,serif" font-size="14.00" fill="#000000">[roo:local_value]</text>
</g>
<!-- map_treatment_delivered_dose&#45;&gt;map_treatment_delivered_dose_gray -->
<g id="edge18" class="edge">
<title>map_treatment_delivered_dose&#45;&gt;map_treatment_delivered_dose_gray</title>
<path fill="none" stroke="#000000" d="M1440.6913,-363.1347C1399.0633,-343.276 1340.9217,-315.5394 1298.2876,-295.2007"/>
<polygon fill="#000000" stroke="#000000" points="1299.6984,-291.9959 1289.1658,-290.8491 1296.6844,-298.3138 1299.6984,-291.9959"/>
<text text-anchor="middle" x="1449.5036" y="-332.0203" font-family="Times,serif" font-size="14.00" fill="#000000">has_unit</text>
<text text-anchor="middle" x="1449.5036" y="-317.0203" font-family="Times,serif" font-size="14.00" fill="#000000">[roo:P100027]</text>
</g>
<!-- map_treatment_prescribed_fractions -->
<g id="node25" class="node">
<title>map_treatment_prescribed_fractions</title>
<ellipse fill="#b2dfee" stroke="#b2dfee" cx="1610.0036" cy="-268.3503" rx="265.7444" ry="26.7407"/>
<text text-anchor="middle" x="1610.0036" y="-272.1503" font-family="Times,serif" font-size="14.00" fill="#000000">Number of Radiotherapy Fractions Per Treatment</text>
<text text-anchor="middle" x="1610.0036" y="-257.1503" font-family="Times,serif" font-size="14.00" fill="#000000">[roo:C100356]</text>
</g>
<!-- map_treatment_prescribed_dose&#45;&gt;map_treatment_prescribed_fractions -->
<g id="edge39" class="edge">
<title>map_treatment_prescribed_dose&#45;&gt;map_treatment_prescribed_fractions</title>
<path fill="none" stroke="#000000" d="M1756.4274,-362.1086C1728.1726,-344.0164 1690.3035,-319.7681 1660.1559,-300.4639"/>
<polygon fill="#000000" stroke="#000000" points="1661.7794,-297.3474 1651.4705,-294.9024 1658.0046,-303.2425 1661.7794,-297.3474"/>
<text text-anchor="middle" x="1777.5036" y="-332.0203" font-family="Times,serif" font-size="14.00" fill="#000000">has_count</text>
<text text-anchor="middle" x="1777.5036" y="-317.0203" font-family="Times,serif" font-size="14.00" fill="#000000">[roo:P100223]</text>
</g>
<!-- map_treatment_prescribed_fractions_per_day -->
<g id="node29" class="node">
<title>map_treatment_prescribed_fractions_per_day</title>
<ellipse fill="#b2dfee" stroke="#b2dfee" cx="2126.0036" cy="-268.3503" rx="231.8621" ry="26.7407"/>
<text text-anchor="middle" x="2126.0036" y="-272.1503" font-family="Times,serif" font-size="14.00" fill="#000000">Number of Radiotherapy Fractions Per Day</text>
<text text-anchor="middle" x="2126.0036" y="-257.1503" font-family="Times,serif" font-size="14.00" fill="#000000">[roo:C100355]</text>
</g>
<!-- map_treatment_prescribed_dose&#45;&gt;map_treatment_prescribed_fractions_per_day -->
<g id="edge37" class="edge">
<title>map_treatment_prescribed_dose&#45;&gt;map_treatment_prescribed_fractions_per_day</title>
<path fill="none" stroke="#000000" d="M1863.1859,-364.0032C1915.8682,-344.8294 1989.8008,-317.9215 2045.8371,-297.527"/>
<polygon fill="#000000" stroke="#000000" points="2047.1752,-300.7647 2055.3751,-294.0556 2044.7811,-294.1868 2047.1752,-300.7647"/>
<text text-anchor="middle" x="2069.5036" y="-332.0203" font-family="Times,serif" font-size="14.00" fill="#000000">has_fraction_count</text>
<text text-anchor="middle" x="2069.5036" y="-317.0203" font-family="Times,serif" font-size="14.00" fill="#000000">[roo:P100224]</text>
</g>
<!-- map_treatment_prescribed_dose_gray -->
<g id="node36" class="node">
<title>map_treatment_prescribed_dose_gray</title>
<ellipse fill="#b2dfee" stroke="#b2dfee" cx="2460.0036" cy="-268.3503" rx="84.2917" ry="26.7407"/>
<text text-anchor="middle" x="2460.0036" y="-272.1503" font-family="Times,serif" font-size="14.00" fill="#000000">gray</text>
<text text-anchor="middle" x="2460.0036" y="-257.1503" font-family="Times,serif" font-size="14.00" fill="#000000">[UO:0000134]</text>
</g>
<!-- map_treatment_prescribed_dose&#45;&gt;map_treatment_prescribed_dose_gray -->
<g id="edge38" class="edge">
<title>map_treatment_prescribed_dose&#45;&gt;map_treatment_prescribed_dose_gray</title>
<path fill="none" stroke="#000000" d="M1900.6356,-368.9861C1917.7612,-366.1569 1935.3557,-363.4485 1952.0036,-361.2203 2036.0764,-349.9678 2058.1631,-356.0905 2142.0036,-343.2203 2243.0699,-327.7059 2267.8248,-320.0936 2367.0036,-295.2203 2374.0641,-293.4496 2381.3977,-291.5089 2388.7097,-289.5064"/>
<polygon fill="#000000" stroke="#000000" points="2389.9415,-292.7968 2398.6397,-286.7476 2388.0677,-286.0523 2389.9415,-292.7968"/>
<text text-anchor="middle" x="2344.5036" y="-332.0203" font-family="Times,serif" font-size="14.00" fill="#000000">has_unit</text>
<text text-anchor="middle" x="2344.5036" y="-317.0203" font-family="Times,serif" font-size="14.00" fill="#000000">[roo:P100027]</text>
</g>
<!-- map_gender -->
<g id="node17" class="node">
<title>map_gender</title>
<ellipse fill="#b2dfee" stroke="#b2dfee" cx="1094.0036" cy="-508.8305" rx="82.0488" ry="26.7407"/>
<text text-anchor="middle" x="1094.0036" y="-512.6305" font-family="Times,serif" font-size="14.00" fill="#000000">Sex</text>
<text text-anchor="middle" x="1094.0036" y="-497.6305" font-family="Times,serif" font-size="14.00" fill="#000000">[ncit:C28421]</text>
</g>
<!-- map_gender_xsd_string -->
<g id="node18" class="node">
<title>map_gender_xsd_string</title>
<ellipse fill="#b2dfee" stroke="#b2dfee" cx="1094.0036" cy="-388.0904" rx="70.0071" ry="26.7407"/>
<text text-anchor="middle" x="1094.0036" y="-391.8904" font-family="Times,serif" font-size="14.00" fill="#000000">LITERAL</text>
<text text-anchor="middle" x="1094.0036" y="-376.8904" font-family="Times,serif" font-size="14.00" fill="#000000">[xsd:string]</text>
</g>
<!-- map_gender&#45;&gt;map_gender_xsd_string -->
<g id="edge14" class="edge">
<title>map_gender&#45;&gt;map_gender_xsd_string</title>
<path fill="none" stroke="#000000" d="M1094.0036,-481.7341C1094.0036,-465.0338 1094.0036,-443.3933 1094.0036,-425.1232"/>
<polygon fill="#000000" stroke="#000000" points="1097.5037,-425.0964 1094.0036,-415.0964 1090.5037,-425.0964 1097.5037,-425.0964"/>
<text text-anchor="middle" x="1153.0036" y="-436.7605" font-family="Times,serif" font-size="14.00" fill="#000000">[roo:local_value]</text>
</g>
<!-- map_clinT_xsd_string -->
<g id="node20" class="node">
<title>map_clinT_xsd_string</title>
<ellipse fill="#b2dfee" stroke="#b2dfee" cx="1314.0036" cy="-26.8701" rx="70.0071" ry="26.7407"/>
<text text-anchor="middle" x="1314.0036" y="-30.6701" font-family="Times,serif" font-size="14.00" fill="#000000">LITERAL</text>
<text text-anchor="middle" x="1314.0036" y="-15.6701" font-family="Times,serif" font-size="14.00" fill="#000000">[xsd:string]</text>
</g>
<!-- map_clinT&#45;&gt;map_clinT_xsd_string -->
<g id="edge15" class="edge">
<title>map_clinT&#45;&gt;map_clinT_xsd_string</title>
<path fill="none" stroke="#000000" d="M1314.0036,-120.5137C1314.0036,-103.8135 1314.0036,-82.173 1314.0036,-63.9029"/>
<polygon fill="#000000" stroke="#000000" points="1317.5037,-63.876 1314.0036,-53.8761 1310.5037,-63.8761 1317.5037,-63.876"/>
<text text-anchor="middle" x="1373.0036" y="-75.5401" font-family="Times,serif" font-size="14.00" fill="#000000">[roo:local_value]</text>
</g>
<!-- map_clinN_xsd_string -->
<g id="node22" class="node">
<title>map_clinN_xsd_string</title>
<ellipse fill="#b2dfee" stroke="#b2dfee" cx="401.0036" cy="-26.8701" rx="70.0071" ry="26.7407"/>
<text text-anchor="middle" x="401.0036" y="-30.6701" font-family="Times,serif" font-size="14.00" fill="#000000">LITERAL</text>
<text text-anchor="middle" x="401.0036" y="-15.6701" font-family="Times,serif" font-size="14.00" fill="#000000">[xsd:string]</text>
</g>
<!-- map_clinN&#45;&gt;map_clinN_xsd_string -->
<g id="edge16" class="edge">
<title>map_clinN&#45;&gt;map_clinN_xsd_string</title>
<path fill="none" stroke="#000000" d="M401.0036,-120.5137C401.0036,-103.8135 401.0036,-82.173 401.0036,-63.9029"/>
<polygon fill="#000000" stroke="#000000" points="404.5037,-63.876 401.0036,-53.8761 397.5037,-63.8761 404.5037,-63.876"/>
<text text-anchor="middle" x="460.0036" y="-75.5401" font-family="Times,serif" font-size="14.00" fill="#000000">[roo:local_value]</text>
</g>
<!-- map_survival -->
<g id="node23" class="node">
<title>map_survival</title>
<ellipse fill="#b2dfee" stroke="#b2dfee" cx="1279.0036" cy="-508.8305" rx="84.7059" ry="26.7407"/>
<text text-anchor="middle" x="1279.0036" y="-512.6305" font-family="Times,serif" font-size="14.00" fill="#000000">Survival</text>
<text text-anchor="middle" x="1279.0036" y="-497.6305" font-family="Times,serif" font-size="14.00" fill="#000000">[roo:C100014]</text>
</g>
<!-- map_survival_xsd_string -->
<g id="node24" class="node">
<title>map_survival_xsd_string</title>
<ellipse fill="#b2dfee" stroke="#b2dfee" cx="1265.0036" cy="-388.0904" rx="70.0071" ry="26.7407"/>
<text text-anchor="middle" x="1265.0036" y="-391.8904" font-family="Times,serif" font-size="14.00" fill="#000000">LITERAL</text>
<text text-anchor="middle" x="1265.0036" y="-376.8904" font-family="Times,serif" font-size="14.00" fill="#000000">[xsd:string]</text>
</g>
<!-- map_survival&#45;&gt;map_survival_xsd_string -->
<g id="edge17" class="edge">
<title>map_survival&#45;&gt;map_survival_xsd_string</title>
<path fill="none" stroke="#000000" d="M1275.8617,-481.7341C1273.9253,-465.0338 1271.416,-443.3933 1269.2976,-425.1232"/>
<polygon fill="#000000" stroke="#000000" points="1272.7636,-424.6267 1268.135,-415.0964 1265.8101,-425.433 1272.7636,-424.6267"/>
<text text-anchor="middle" x="1333.0036" y="-436.7605" font-family="Times,serif" font-size="14.00" fill="#000000">[roo:local_value]</text>
</g>
<!-- map_treatment_prescribed_fractions_xsd_integer -->
<g id="node26" class="node">
<title>map_treatment_prescribed_fractions_xsd_integer</title>
<ellipse fill="#b2dfee" stroke="#b2dfee" cx="1776.0036" cy="-147.6102" rx="76.2353" ry="26.7407"/>
<text text-anchor="middle" x="1776.0036" y="-151.4102" font-family="Times,serif" font-size="14.00" fill="#000000">LITERAL</text>
<text text-anchor="middle" x="1776.0036" y="-136.4102" font-family="Times,serif" font-size="14.00" fill="#000000">[xsd:integer]</text>
</g>
<!-- map_treatment_prescribed_fractions&#45;&gt;map_treatment_prescribed_fractions_xsd_integer -->
<g id="edge19" class="edge">
<title>map_treatment_prescribed_fractions&#45;&gt;map_treatment_prescribed_fractions_xsd_integer</title>
<path fill="none" stroke="#000000" d="M1683.4616,-242.4916C1694.5424,-237.0536 1705.4466,-230.7264 1715.0036,-223.4802 1729.977,-212.1273 1743.45,-196.3254 1753.9017,-182.0801"/>
<polygon fill="#000000" stroke="#000000" points="1756.761,-184.0985 1759.6948,-173.918 1751.0527,-180.047 1756.761,-184.0985"/>
<text text-anchor="middle" x="1797.5036" y="-211.7802" font-family="Times,serif" font-size="14.00" fill="#000000">has_value</text>
<text text-anchor="middle" x="1797.5036" y="-196.7802" font-family="Times,serif" font-size="14.00" fill="#000000">[roo:P100042]</text>
</g>
<!-- map_age -->
<g id="node27" class="node">
<title>map_age</title>
<ellipse fill="#b2dfee" stroke="#b2dfee" cx="752.0036" cy="-508.8305" rx="102.561" ry="26.7407"/>
<text text-anchor="middle" x="752.0036" y="-512.6305" font-family="Times,serif" font-size="14.00" fill="#000000">&#39;Age at Diagnosis&#39;</text>
<text text-anchor="middle" x="752.0036" y="-497.6305" font-family="Times,serif" font-size="14.00" fill="#000000">[roo:C100002]</text>
</g>
<!-- map_age&#45;&gt;map_disease -->
<g id="edge21" class="edge">
<title>map_age&#45;&gt;map_disease</title>
<path fill="none" stroke="#000000" d="M755.599,-481.7819C758.6309,-466.4432 764.1309,-447.4757 774.0036,-432.9605 777.5746,-427.7102 781.9556,-422.8027 786.6955,-418.3035"/>
<polygon fill="#000000" stroke="#000000" points="789.1572,-420.8001 794.3745,-411.579 784.5455,-415.5339 789.1572,-420.8001"/>
<text text-anchor="middle" x="825.5036" y="-452.2605" font-family="Times,serif" font-size="14.00" fill="#000000">is_when</text>
<text text-anchor="middle" x="825.5036" y="-437.2605" font-family="Times,serif" font-size="14.00" fill="#000000">[roo:P100038]</text>
</g>
<!-- map_age_unit -->
<g id="node28" class="node">
<title>map_age_unit</title>
<ellipse fill="#b2dfee" stroke="#b2dfee" cx="390.0036" cy="-388.0904" rx="84.2917" ry="26.7407"/>
<text text-anchor="middle" x="390.0036" y="-391.8904" font-family="Times,serif" font-size="14.00" fill="#000000">year</text>
<text text-anchor="middle" x="390.0036" y="-376.8904" font-family="Times,serif" font-size="14.00" fill="#000000">[UO:0000036]</text>
</g>
<!-- map_age&#45;&gt;map_age_unit -->
<g id="edge20" class="edge">
<title>map_age&#45;&gt;map_age_unit</title>
<path fill="none" stroke="#000000" d="M688.5337,-487.661C623.8854,-466.0985 523.9945,-432.7812 457.8191,-410.7094"/>
<polygon fill="#000000" stroke="#000000" points="458.9021,-407.3811 448.3084,-407.5372 456.6873,-414.0215 458.9021,-407.3811"/>
<text text-anchor="middle" x="666.5036" y="-452.2605" font-family="Times,serif" font-size="14.00" fill="#000000">has_unit</text>
<text text-anchor="middle" x="666.5036" y="-437.2605" font-family="Times,serif" font-size="14.00" fill="#000000">[roo:P100027]</text>
</g>
<!-- map_age_unit_xsd_integer -->
<g id="node38" class="node">
<title>map_age_unit_xsd_integer</title>
<ellipse fill="#b2dfee" stroke="#b2dfee" cx="298.0036" cy="-268.3503" rx="76.2353" ry="26.7407"/>
<text text-anchor="middle" x="298.0036" y="-272.1503" font-family="Times,serif" font-size="14.00" fill="#000000">LITERAL</text>
<text text-anchor="middle" x="298.0036" y="-257.1503" font-family="Times,serif" font-size="14.00" fill="#000000">[xsd:integer]</text>
</g>
<!-- map_age_unit&#45;&gt;map_age_unit_xsd_integer -->
<g id="edge32" class="edge">
<title>map_age_unit&#45;&gt;map_age_unit_xsd_integer</title>
<path fill="none" stroke="#000000" d="M369.2238,-361.557C364.5335,-355.5384 359.5868,-349.1677 355.0036,-343.2203 344.7784,-329.9518 333.5997,-315.3008 323.8718,-302.5034"/>
<polygon fill="#000000" stroke="#000000" points="326.5488,-300.2413 317.7133,-294.3946 320.9743,-304.4751 326.5488,-300.2413"/>
<text text-anchor="middle" x="406.5036" y="-332.0203" font-family="Times,serif" font-size="14.00" fill="#000000">has_value</text>
<text text-anchor="middle" x="406.5036" y="-317.0203" font-family="Times,serif" font-size="14.00" fill="#000000">[roo:P100042]</text>
</g>
<!-- map_treatment_prescribed_fractions_per_day_xsd_integer -->
<g id="node30" class="node">
<title>map_treatment_prescribed_fractions_per_day_xsd_integer</title>
<ellipse fill="#b2dfee" stroke="#b2dfee" cx="2126.0036" cy="-147.6102" rx="76.2353" ry="26.7407"/>
<text text-anchor="middle" x="2126.0036" y="-151.4102" font-family="Times,serif" font-size="14.00" fill="#000000">LITERAL</text>
<text text-anchor="middle" x="2126.0036" y="-136.4102" font-family="Times,serif" font-size="14.00" fill="#000000">[xsd:integer]</text>
</g>
<!-- map_treatment_prescribed_fractions_per_day&#45;&gt;map_treatment_prescribed_fractions_per_day_xsd_integer -->
<g id="edge22" class="edge">
<title>map_treatment_prescribed_fractions_per_day&#45;&gt;map_treatment_prescribed_fractions_per_day_xsd_integer</title>
<path fill="none" stroke="#000000" d="M2126.0036,-241.2538C2126.0036,-224.5536 2126.0036,-202.9131 2126.0036,-184.643"/>
<polygon fill="#000000" stroke="#000000" points="2129.5037,-184.6161 2126.0036,-174.6162 2122.5037,-184.6162 2129.5037,-184.6161"/>
<text text-anchor="middle" x="2177.5036" y="-211.7802" font-family="Times,serif" font-size="14.00" fill="#000000">has_value</text>
<text text-anchor="middle" x="2177.5036" y="-196.7802" font-family="Times,serif" font-size="14.00" fill="#000000">[roo:P100042]</text>
</g>
<!-- map_clinTNM_procedure_xsd_string -->
<g id="node32" class="node">
<title>map_clinTNM_procedure_xsd_string</title>
<ellipse fill="#b2dfee" stroke="#b2dfee" cx="784.0036" cy="-26.8701" rx="70.0071" ry="26.7407"/>
<text text-anchor="middle" x="784.0036" y="-30.6701" font-family="Times,serif" font-size="14.00" fill="#000000">LITERAL</text>
<text text-anchor="middle" x="784.0036" y="-15.6701" font-family="Times,serif" font-size="14.00" fill="#000000">[xsd:string]</text>
</g>
<!-- map_clinTNM_procedure&#45;&gt;map_clinTNM_procedure_xsd_string -->
<g id="edge23" class="edge">
<title>map_clinTNM_procedure&#45;&gt;map_clinTNM_procedure_xsd_string</title>
<path fill="none" stroke="#000000" d="M784.0036,-120.5137C784.0036,-103.8135 784.0036,-82.173 784.0036,-63.9029"/>
<polygon fill="#000000" stroke="#000000" points="787.5037,-63.876 784.0036,-53.8761 780.5037,-63.8761 787.5037,-63.876"/>
<text text-anchor="middle" x="843.0036" y="-75.5401" font-family="Times,serif" font-size="14.00" fill="#000000">[roo:local_value]</text>
</g>
<!-- map_patient -->
<g id="node34" class="node">
<title>map_patient</title>
<ellipse fill="#b2dfee" stroke="#b2dfee" cx="1193.0036" cy="-629.5706" rx="82.0488" ry="26.7407"/>
<text text-anchor="middle" x="1193.0036" y="-633.3706" font-family="Times,serif" font-size="14.00" fill="#000000">Patient</text>
<text text-anchor="middle" x="1193.0036" y="-618.3706" font-family="Times,serif" font-size="14.00" fill="#000000">[ncit:C16960]</text>
</g>
<!-- map_patient&#45;&gt;map_disease -->
<g id="edge25" class="edge">
<title>map_patient&#45;&gt;map_disease</title>
<path fill="none" stroke="#000000" d="M1122.9851,-615.5106C1046.3052,-598.7173 930.1841,-568.721 900.0036,-535.7006 868.4349,-501.1614 899.5823,-473.9451 877.0036,-432.9605 874.6645,-428.7147 871.8028,-424.6046 868.6668,-420.7086"/>
<polygon fill="#000000" stroke="#000000" points="871.1548,-418.2377 861.9238,-413.0376 865.8972,-422.8592 871.1548,-418.2377"/>
<text text-anchor="middle" x="951.5036" y="-512.6305" font-family="Times,serif" font-size="14.00" fill="#000000">has_neoplasm</text>
<text text-anchor="middle" x="951.5036" y="-497.6305" font-family="Times,serif" font-size="14.00" fill="#000000">[roo:P100008]</text>
</g>
<!-- map_patient&#45;&gt;map_treatment -->
<g id="edge26" class="edge">
<title>map_patient&#45;&gt;map_treatment</title>
<path fill="none" stroke="#000000" d="M1263.5976,-615.6073C1301.6128,-607.5784 1349.1644,-596.7135 1391.0036,-584.7006 1438.5134,-571.0595 1490.8442,-552.8592 1532.2109,-537.7041"/>
<polygon fill="#000000" stroke="#000000" points="1533.4955,-540.9609 1541.6706,-534.2216 1531.0772,-534.3919 1533.4955,-540.9609"/>
<text text-anchor="middle" x="1541.0036" y="-573.0006" font-family="Times,serif" font-size="14.00" fill="#000000">has_procedure</text>
<text text-anchor="middle" x="1541.0036" y="-558.0006" font-family="Times,serif" font-size="14.00" fill="#000000">[roo:P100024]</text>
</g>
<!-- map_patient&#45;&gt;map_gender -->
<g id="edge29" class="edge">
<title>map_patient&#45;&gt;map_gender</title>
<path fill="none" stroke="#000000" d="M1132.8476,-611.1997C1120.4998,-604.7256 1108.8817,-596.1052 1101.0036,-584.7006 1093.3509,-573.6223 1090.6771,-559.359 1090.2328,-546.1949"/>
<polygon fill="#000000" stroke="#000000" points="1093.7343,-545.9785 1090.3019,-535.955 1086.7344,-545.9311 1093.7343,-545.9785"/>
<text text-anchor="middle" x="1167.5036" y="-573.0006" font-family="Times,serif" font-size="14.00" fill="#000000">has_biological_sex</text>
<text text-anchor="middle" x="1167.5036" y="-558.0006" font-family="Times,serif" font-size="14.00" fill="#000000">[roo:P100018]</text>
</g>
<!-- map_patient&#45;&gt;map_survival -->
<g id="edge28" class="edge">
<title>map_patient&#45;&gt;map_survival</title>
<path fill="none" stroke="#000000" d="M1221.0222,-604.1827C1226.9851,-598.1047 1232.9885,-591.4202 1238.0036,-584.7006 1247.1552,-572.4383 1255.5339,-557.8755 1262.2985,-544.8031"/>
<polygon fill="#000000" stroke="#000000" points="1265.5598,-546.1082 1266.9268,-535.6019 1259.3064,-542.9626 1265.5598,-546.1082"/>
<text text-anchor="middle" x="1322.0036" y="-573.0006" font-family="Times,serif" font-size="14.00" fill="#000000">has_survival_time</text>
<text text-anchor="middle" x="1322.0036" y="-558.0006" font-family="Times,serif" font-size="14.00" fill="#000000">[roo:P100311]</text>
</g>
<!-- map_patient&#45;&gt;map_age -->
<g id="edge27" class="edge">
<title>map_patient&#45;&gt;map_age</title>
<path fill="none" stroke="#000000" d="M1111.7692,-625.6982C997.2264,-619.5162 799.3037,-605.9081 774.0036,-584.7006 762.6704,-575.2007 756.9813,-560.2433 754.1924,-546.1113"/>
<polygon fill="#000000" stroke="#000000" points="757.6245,-545.4029 752.6348,-536.0566 750.707,-546.4746 757.6245,-545.4029"/>
<text text-anchor="middle" x="825.5036" y="-573.0006" font-family="Times,serif" font-size="14.00" fill="#000000">has_age</text>
<text text-anchor="middle" x="825.5036" y="-558.0006" font-family="Times,serif" font-size="14.00" fill="#000000">[roo:P100000]</text>
</g>
<!-- map_patient_xsd_string -->
<g id="node35" class="node">
<title>map_patient_xsd_string</title>
<ellipse fill="#b2dfee" stroke="#b2dfee" cx="1897.0036" cy="-508.8305" rx="70.0071" ry="26.7407"/>
<text text-anchor="middle" x="1897.0036" y="-512.6305" font-family="Times,serif" font-size="14.00" fill="#000000">LITERAL</text>
<text text-anchor="middle" x="1897.0036" y="-497.6305" font-family="Times,serif" font-size="14.00" fill="#000000">[xsd:string]</text>
</g>
<!-- map_patient&#45;&gt;map_patient_xsd_string -->
<g id="edge30" class="edge">
<title>map_patient&#45;&gt;map_patient_xsd_string</title>
<path fill="none" stroke="#000000" d="M1272.8932,-623.3036C1354.8367,-616.2709 1485.8244,-603.3506 1598.0036,-584.7006 1696.8209,-568.272 1721.5532,-562.7579 1818.0036,-535.7006 1823.7224,-534.0963 1829.6358,-532.3166 1835.5347,-530.4589"/>
<polygon fill="#000000" stroke="#000000" points="1836.9672,-533.6746 1845.4116,-527.2761 1834.8201,-527.012 1836.9672,-533.6746"/>
<text text-anchor="middle" x="1790.5036" y="-557.5006" font-family="Times,serif" font-size="14.00" fill="#000000">[rdfs:label]</text>
</g>
<!-- map_treatment_prescribed_dose_gray_xsd_double -->
<g id="node37" class="node">
<title>map_treatment_prescribed_dose_gray_xsd_double</title>
<ellipse fill="#b2dfee" stroke="#b2dfee" cx="2460.0036" cy="-147.6102" rx="73.5782" ry="26.7407"/>
<text text-anchor="middle" x="2460.0036" y="-151.4102" font-family="Times,serif" font-size="14.00" fill="#000000">LITERAL</text>
<text text-anchor="middle" x="2460.0036" y="-136.4102" font-family="Times,serif" font-size="14.00" fill="#000000">[xsd:double]</text>
</g>
<!-- map_treatment_prescribed_dose_gray&#45;&gt;map_treatment_prescribed_dose_gray_xsd_double -->
<g id="edge31" class="edge">
<title>map_treatment_prescribed_dose_gray&#45;&gt;map_treatment_prescribed_dose_gray_xsd_double</title>
<path fill="none" stroke="#000000" d="M2460.0036,-241.2538C2460.0036,-224.5536 2460.0036,-202.9131 2460.0036,-184.643"/>
<polygon fill="#000000" stroke="#000000" points="2463.5037,-184.6161 2460.0036,-174.6162 2456.5037,-184.6162 2463.5037,-184.6161"/>
<text text-anchor="middle" x="2511.5036" y="-211.7802" font-family="Times,serif" font-size="14.00" fill="#000000">has_value</text>
<text text-anchor="middle" x="2511.5036" y="-196.7802" font-family="Times,serif" font-size="14.00" fill="#000000">[roo:P100042]</text>
</g>
</g>
</svg>
